<svg width="2584" height="903" viewBox="0 0 2584 903" fill="none" xmlns="http://www.w3.org/2000/svg">
<path d="M191.623 751.159L0 560.101L552.796 0V392.171L191.623 751.159Z" fill="#F7F3EB"/>
<path d="M223.727 783.337L552.796 453.511V692.836L343.115 903L223.727 783.337Z" fill="#F7F3EB"/>
<path d="M959.093 514.253L1071.35 236.692H1237.56L959.093 780.886L681.354 236.692H847.56L959.093 514.253Z" fill="#F7F3EB"/>
<path d="M1354.81 746.646V632.271H1612.13V746.646H1354.81ZM1354.81 351.067V236.692H1612.13V351.067H1354.81ZM1354.81 536.837V426.104H1597.56V536.837H1354.81ZM1258.58 236.692H1394.17V746.646H1258.58V236.692Z" fill="#F7F3EB"/>
<path d="M1658.89 236.692H1800.31V626.443H2006.61V746.646H1658.89V236.692Z" fill="#F7F3EB"/>
<path d="M2172.13 664.325L2176.5 560.149H2438.21L2441.85 664.325H2172.13ZM2305.53 445.773L2238.47 598.76L2247.21 630.085L2188.17 746.646H2027.79L2305.53 202.452L2584 746.646H2423.63L2365.31 635.185L2373.33 598.76L2305.53 445.773Z" fill="#F7F3EB"/>
</svg>
